# xmcd
#
# Track frame offsets:
# 150
# 20117
# 36624
# 55646
# 72695
# 90973
# 112390
# 131282
# 149310
# 167521
# 186644
#
# Disc length: 2682 seconds
#
#
# Revision: 0
# Processed by: cddbd v1.5PL3 Copyright (c) Steve Scherf et al.
# Submitted via: FreeRIP 2.53 
#
DISCID=a60a780b
DTITLE=Hanson, Jennifer - Jennifer Hanson
DYEAR=1900
DGENRE=
TTITLE0=Beautiful Goodbye
TTITLE1=Just One Of Those Days
TTITLE2=Half A Heart Tattoo
TTITLE3=This Far Gone
TTITLE4=Get Yourself Back
TTITLE5=All Those Yesterdays
TTITLE6=Travis
TTITLE7=One Little Word
TTITLE8=It Isn't Just Raining
TTITLE9=Baby I Was Wrong
TTITLE10=Simply Yours
EXTD=
EXTT0=
EXTT1=
EXTT2=
EXTT3=
EXTT4=
EXTT5=
EXTT6=
EXTT7=
EXTT8=
EXTT9=
EXTT10=
PLAYORDER=
